<?xml version="1.0" encoding="UTF-8"?>
<svg version="1.1" xmlns="http://www.w3.org/2000/svg" width="1024" height="1024">
<path d="M0 0 C4.74404945 0.76164785 9.50850262 1.35741845 14.27587891 1.95410156 C16.77978516 2.44628906 16.77978516 2.44628906 18.67749023 3.40258789 C20.76144983 4.43718634 22.67296752 5.05326791 24.92041016 5.63769531 C26.13676147 5.96411011 26.13676147 5.96411011 27.37768555 6.29711914 C28.25287842 6.53197021 29.12807129 6.76682129 30.02978516 7.00878906 C63.51115388 16.32007164 95.46378296 31.26944481 123.77978516 51.44628906 C124.52180176 51.97335449 125.26381836 52.50041992 126.02832031 53.04345703 C138.77886028 62.15098558 151.37555947 71.57443752 162.24853516 82.91894531 C164.51838838 85.1830081 166.99554959 87.17981438 169.49462891 89.18457031 C169.91873047 89.6009375 170.34283203 90.01730469 170.77978516 90.44628906 C170.77978516 91.10628906 170.77978516 91.76628906 170.77978516 92.44628906 C171.43978516 92.44628906 172.09978516 92.44628906 172.77978516 92.44628906 C172.77978516 93.10628906 172.77978516 93.76628906 172.77978516 94.44628906 C173.76978516 94.77628906 174.75978516 95.10628906 175.77978516 95.44628906 C177.25989585 97.07842663 178.66737234 98.77719095 180.02978516 100.50878906 C182.6566601 103.82964338 185.31408232 107.07047038 188.12744141 110.23535156 C240.03394372 169.23271523 267.93768407 253.30340409 263.29150391 331.64160156 C262.46317618 343.28523475 261.29229536 354.87200104 259.77978516 366.44628906 C259.5811084 367.98446289 259.5811084 367.98446289 259.37841797 369.55371094 C253.24889999 415.17632174 234.77707895 460.54279296 208.77978516 498.44628906 C208.36905762 499.04989258 207.95833008 499.65349609 207.53515625 500.27539062 C198.32745918 513.73650232 188.01024638 526.32611777 176.82666016 538.18847656 C174.75662464 540.26809567 174.75662464 540.26809567 173.77978516 542.44628906 C173.11978516 542.44628906 172.45978516 542.44628906 171.77978516 542.44628906 C171.77978516 543.10628906 171.77978516 543.76628906 171.77978516 544.44628906 C170.13627058 545.80805828 168.46455859 547.13590972 166.77978516 548.44628906 C164.49905705 550.66537587 162.27442247 552.93014578 160.07275391 555.22753906 C128.8363535 587.29097247 85.85283146 611.20881342 43.77978516 625.44628906 C43.01923828 625.70748535 42.25869141 625.96868164 41.47509766 626.23779297 C24.68890706 631.9568255 7.58417417 635.78451696 -9.90771484 638.63378906 C-10.85533691 638.7886377 -11.80295898 638.94348633 -12.77929688 639.10302734 C-29.05314253 641.62974878 -45.13250423 642.82799676 -61.59521484 642.75878906 C-62.95851929 642.75605484 -62.95851929 642.75605484 -64.34936523 642.75326538 C-119.29891041 642.56905216 -173.04968041 628.99828676 -221.22021484 602.44628906 C-222.69941406 601.65931641 -222.69941406 601.65931641 -224.20849609 600.85644531 C-250.81433128 586.66917535 -274.29481506 567.49842005 -295.59521484 546.32128906 C-296.51036865 545.41540039 -297.42552246 544.50951172 -298.3684082 543.57617188 C-303.67992976 538.2400443 -308.59900316 532.7330924 -313.28930664 526.8425293 C-315.0145435 524.70152541 -316.79699462 522.65685206 -318.65771484 520.63378906 C-322.42558866 516.41588816 -325.59376848 511.78447723 -328.75708008 507.10522461 C-331.25734839 503.37667802 -331.25734839 503.37667802 -335.22021484 501.44628906 C-334.89021484 500.78628906 -334.56021484 500.12628906 -334.22021484 499.44628906 C-335.71520906 496.95772726 -337.26749814 494.58719629 -338.90771484 492.19628906 C-367.02103268 449.96923638 -384.50773818 400.10124479 -388.22021484 349.44628906 C-388.27516113 348.76518066 -388.33010742 348.08407227 -388.38671875 347.38232422 C-392.34526638 297.06556393 -386.5582183 244.33974183 -367.22021484 197.44628906 C-366.86233887 196.56489258 -366.50446289 195.68349609 -366.13574219 194.77539062 C-358.5430972 176.20987952 -349.61249635 158.00620341 -338.22021484 141.44628906 C-337.79272949 140.8247998 -337.36524414 140.20331055 -336.92480469 139.56298828 C-325.11377053 122.4599713 -312.79090148 105.15058957 -297.54833984 90.89941406 C-295.99533295 89.52834615 -295.99533295 89.52834615 -296.22021484 87.44628906 C-295.45708984 87.01316406 -294.69396484 86.58003906 -293.90771484 86.13378906 C-291.08081499 84.64142071 -291.08081499 84.64142071 -289.72021484 81.94628906 C-288.22021484 79.44628906 -288.22021484 79.44628906 -286.00927734 78.12207031 C-282.70214013 76.13500888 -279.9609695 73.68970984 -277.09521484 71.13378906 C-262.26851043 58.22623197 -246.12404962 47.4278833 -229.22021484 37.44628906 C-228.07818604 36.76590576 -228.07818604 36.76590576 -226.91308594 36.07177734 C-214.50425822 28.72945399 -201.55063778 22.91014741 -188.22021484 17.44628906 C-187.49624512 17.1473877 -186.77227539 16.84848633 -186.02636719 16.54052734 C-127.52827863 -7.34006707 -61.75275214 -10.2006324 0 0 Z M-152.74365234 147.80957031 C-158.6449209 154.41012214 -157.40645239 162.62341369 -157.40551758 170.94604492 C-157.40769069 173.10974196 -157.4258344 175.27291731 -157.44482422 177.43652344 C-157.8497233 190.62352144 -157.8497233 190.62352144 -153.03271484 202.44628906 C-149.06996544 205.26424419 -145.86521528 206.79985088 -140.91162109 206.13769531 C-136.56523181 204.98864987 -134.8016122 204.2721084 -132.11914062 200.46191406 C-129.64864343 195.96630964 -129.65860509 191.82346473 -129.72412109 186.78613281 C-129.72266586 185.8780336 -129.72121063 184.96993439 -129.7197113 184.03431702 C-129.72136378 182.1240008 -129.73285168 180.21367037 -129.75366211 178.3034668 C-129.78266391 175.38890783 -129.77424775 172.47616537 -129.76123047 169.56152344 C-129.76746746 167.69888444 -129.7758581 165.83625115 -129.78662109 163.97363281 C-129.78368546 163.10786118 -129.78074982 162.24208954 -129.77772522 161.3500824 C-129.85573842 156.32010446 -130.40554449 152.7878422 -133.22021484 148.44628906 C-139.87691991 143.09198281 -146.02981493 141.80154657 -152.74365234 147.80957031 Z M-94.22021484 147.44628906 C-97.62370641 151.88343362 -97.78350261 155.87525312 -97.97021484 161.25878906 C-98.01275391 162.02771484 -98.05529297 162.79664063 -98.09912109 163.58886719 C-98.29845174 167.96306746 -98.07704821 172.02818445 -97.44726562 176.37670898 C-96.92562554 181.13148636 -97.2257967 185.95750891 -97.34716797 190.73144531 C-97.358125 191.5396875 -97.36908203 192.34792969 -97.38037109 193.18066406 C-97.39720947 193.90479492 -97.41404785 194.62892578 -97.43139648 195.375 C-97.03899278 199.22373184 -95.56317303 201.13762669 -92.72021484 203.69628906 C-88.06099886 206.02589705 -84.33511695 206.23639589 -79.22021484 205.44628906 C-75.89049486 204.0538607 -74.0381581 202.98963699 -72.32250977 199.75244141 C-69.62942617 192.42239433 -69.8485832 185.23619962 -69.97021484 177.50878906 C-69.97537109 176.20232422 -69.98052734 174.89585937 -69.98583984 173.54980469 C-69.35494923 158.96889604 -69.35494923 158.96889604 -75.74755859 146.72363281 C-79.12257249 143.79623349 -82.46106989 144.1759075 -86.74365234 144.23144531 C-89.99075644 144.51313415 -91.77203608 145.29485924 -94.22021484 147.44628906 Z M-35.82592773 150.48779297 C-37.81149736 154.70091374 -37.66894713 158.49068983 -37.65380859 163.09472656 C-37.65905045 164.02548004 -37.6642923 164.95623352 -37.66969299 165.91519165 C-37.67610389 167.88029993 -37.67478829 169.84544664 -37.66625977 171.81054688 C-37.65776274 174.804413 -37.68650314 177.79636188 -37.71826172 180.79003906 C-37.71987432 182.70410099 -37.71929508 184.61816628 -37.71630859 186.53222656 C-37.72754257 187.4209848 -37.73877655 188.30974304 -37.75035095 189.22543335 C-37.68474997 195.12909932 -36.63546336 198.59681963 -33.22021484 203.44628906 C-29.11763012 206.42025108 -24.07128063 206.19613835 -19.22021484 205.44628906 C-15.92365784 203.81819356 -13.82850444 201.58518371 -12.08276367 198.31665039 C-10.9086673 194.40953151 -10.91482181 190.76706125 -10.91943359 186.70800781 C-10.91514847 185.86841019 -10.91086334 185.02881256 -10.90644836 184.16377258 C-10.90071912 182.39117329 -10.90019443 180.61855049 -10.90454102 178.84594727 C-10.90769228 176.15306802 -10.8842551 173.4612976 -10.85888672 170.76855469 C-10.8566125 169.04004044 -10.8559108 167.31152326 -10.85693359 165.58300781 C-10.84772385 164.78690598 -10.8385141 163.99080414 -10.82902527 163.170578 C-10.87418769 157.63064224 -11.90634682 153.50045415 -14.22021484 148.44628906 C-17.57292355 145.25323315 -20.25137009 144.18755867 -24.78271484 143.94628906 C-30.10745431 144.20581418 -32.58359612 146.36549147 -35.82592773 150.48779297 Z M-194.22021484 239.44628906 C-197.85482221 244.49435485 -199.34119547 247.83020297 -199.36738586 254.02105713 C-199.37454117 255.18148529 -199.38169647 256.34191345 -199.3890686 257.5375061 C-199.39175751 258.812258 -199.39444641 260.08700989 -199.3972168 261.40039062 C-199.40348334 262.75578993 -199.41013031 264.11118753 -199.41712952 265.46658325 C-199.4381706 269.92334803 -199.4485401 274.38011311 -199.45849609 278.83691406 C-199.4625453 280.37538419 -199.46666227 281.91385414 -199.47084618 283.45232391 C-199.48990733 290.68984339 -199.50412972 297.92735268 -199.51245815 305.16489244 C-199.52219852 313.49048768 -199.54842974 321.81581478 -199.58895904 330.1413157 C-199.61926914 336.59166556 -199.6339415 343.04193931 -199.63723916 349.49235892 C-199.63957509 353.33656194 -199.64834121 357.18047888 -199.67370033 361.0246048 C-199.69724462 364.6526578 -199.70111062 368.28024186 -199.69093895 371.9083519 C-199.69021928 373.84851904 -199.70912936 375.78866377 -199.72900391 377.72872925 C-199.61548494 397.25283887 -192.17256982 414.54222643 -178.28662109 428.37207031 C-176.32279931 430.15412992 -174.30955718 431.81350672 -172.22021484 433.44628906 C-171.48287109 434.03152344 -170.74552734 434.61675781 -169.98583984 435.21972656 C-156.55698929 445.26942191 -141.27207671 449.30129092 -124.77880859 450.01269531 C-123.84004379 450.05389496 -122.90127899 450.0950946 -121.93406677 450.13754272 C-109.30841332 450.63062418 -96.67390615 450.59714048 -84.04077148 450.57666016 C-80.47582495 450.5709256 -76.91095316 450.57428431 -73.34600925 450.58023262 C-70.53945882 450.58388646 -67.73292545 450.58267844 -64.92637444 450.58010483 C-62.98864059 450.57913992 -61.050906 450.58210639 -59.11317444 450.5852356 C-34.72107944 450.52164918 -13.38997419 447.79584524 5.77978516 431.44628906 C6.58158203 430.8571875 7.38337891 430.26808594 8.20947266 429.66113281 C11.32173091 426.97929326 13.50891658 424.05485091 15.84228516 420.69628906 C16.2827417 420.06650146 16.72319824 419.43671387 17.17700195 418.7878418 C20.14177628 414.49171808 22.88108853 410.32987363 24.77978516 405.44628906 C25.42560547 403.80080078 25.42560547 403.80080078 26.08447266 402.12207031 C29.35012541 393.34354512 32.85362656 382.66781328 29.77978516 373.44628906 C30.43978516 372.45628906 31.09978516 371.46628906 31.77978516 370.44628906 C34.26199403 369.99416175 36.58898067 369.70681512 39.09228516 369.50878906 C58.18393243 367.54378825 73.75661195 359.90715277 86.46728516 345.38378906 C95.79702242 333.44105536 102.44688736 318.97863029 101.78759766 303.66113281 C101.77978516 301.44628906 101.77978516 301.44628906 102.77978516 299.44628906 C102.62828721 296.95696992 102.40456635 294.54135641 102.09228516 292.07128906 C102.00197021 291.35610107 101.91165527 290.64091309 101.81860352 289.90405273 C100.63725388 281.41292461 98.30360061 273.75762526 93.77978516 266.44628906 C93.47685547 265.79917969 93.17392578 265.15207031 92.86181641 264.48535156 C86.09763328 251.73840719 73.56909044 242.23200871 60.65478516 236.44628906 C60.03458496 236.16744873 59.41438477 235.8886084 58.77539062 235.60131836 C46.45159462 230.48375555 33.37780741 231.15430877 20.29492188 231.17163086 C18.12073594 231.16727863 15.94655153 231.16209379 13.77236938 231.15614319 C7.8924213 231.14280038 2.01253768 231.142169 -3.86742258 231.14470649 C-8.78311072 231.14577889 -13.69878595 231.1408862 -18.61447132 231.13610107 C-30.21108973 231.12502331 -41.80767574 231.12455945 -53.40429688 231.13061523 C-65.35760065 231.13666128 -77.3107869 231.12432396 -89.26407063 231.10304517 C-99.54121338 231.08542465 -109.81831873 231.07942832 -120.09547603 231.08268291 C-126.22747235 231.08449437 -132.35938473 231.08187269 -138.49136734 231.06796837 C-144.25509111 231.05538654 -150.01863147 231.05733763 -155.78235245 231.07037926 C-157.89425722 231.07274337 -160.00617493 231.07001628 -162.11806488 231.06175613 C-165.00691045 231.05127371 -167.89514219 231.05940135 -170.78396606 231.07206726 C-171.6140377 231.06469298 -172.44410933 231.05731869 -173.29933465 231.04972094 C-181.63244042 231.12627511 -188.78468427 232.7683515 -194.22021484 239.44628906 Z " fill="#F28818" transform="translate(576.22021484375,192.5537109375)"/>
<path d="M0 0 C58.08 0 116.16 0 176 0 C176.061875 19.34625 176.12375 38.6925 176.1875 58.625 C176.21481201 64.71018066 176.24212402 70.79536133 176.27026367 77.06494141 C176.28381348 84.55541992 176.28381348 84.55541992 176.28633118 88.07357788 C176.29090657 90.50547945 176.30139203 92.93737465 176.31672668 95.36923218 C176.55354522 134.93905165 176.55354522 134.93905165 161.8125 150.9375 C150.03477987 161.88977308 135.20168808 164.24157101 119.76757812 164.0534668 C118.8931456 164.04707184 118.01871307 164.04067688 117.11778259 164.03408813 C114.25552261 164.01148907 111.39342387 163.98081181 108.53125 163.94921875 C106.52543325 163.92995809 104.51961451 163.91090326 102.51379395 163.89204407 C98.32115823 163.85119545 94.12859552 163.80599573 89.93603516 163.75805664 C84.57997007 163.69742693 79.22388256 163.65051152 73.86765289 163.60722637 C69.72902576 163.57176517 65.59052565 163.5275441 61.45201111 163.48087502 C59.47780825 163.45992617 57.50357085 163.44199578 55.52931213 163.4272213 C52.76349491 163.40549659 49.99807354 163.37156943 47.23242188 163.3347168 C46.0257914 163.32911995 46.0257914 163.32911995 44.79478455 163.32341003 C39.32163429 163.23320851 34.29597389 162.37130901 29 161 C29 160.34 29 159.68 29 159 C28.154375 158.773125 27.30875 158.54625 26.4375 158.3125 C17.22416765 154.79468219 10.95842235 147.6703095 6.453125 139.03515625 C-10.1409821 101.1127409 0 35.17037608 0 0 Z " fill="#F28818" transform="translate(403,451)"/>
<path d="M0 0 C11.01703617 0.2167932 20.77418439 4.91094312 28.75 12.3125 C36.15241442 20.74877118 41.19278425 31.50627846 40.95703125 42.88671875 C39.93296968 54.88562885 35.78219768 64.82006731 27 73.1875 C17.99175061 80.36998565 8.04050827 82.69343819 -3.25 83.3125 C-4.97880189 81.58369811 -4.37599234 79.36347384 -4.38552856 77.05882263 C-4.38350433 76.30657913 -4.3814801 75.55433563 -4.37939453 74.77929688 C-4.38114685 73.99071793 -4.38289917 73.20213898 -4.38470459 72.3896637 C-4.38912358 69.7701704 -4.38618496 67.15074404 -4.3828125 64.53125 C-4.38348553 62.7190347 -4.38445554 60.90681948 -4.38571167 59.09460449 C-4.38718871 55.29141381 -4.3850339 51.48824656 -4.38037109 47.68505859 C-4.3746738 42.79871505 -4.37795278 37.91242643 -4.38394356 33.0260849 C-4.38754901 29.28244611 -4.38641066 25.53882045 -4.38381577 21.79518127 C-4.38314645 19.99296563 -4.38397507 18.19074882 -4.38629532 16.38853455 C-4.38882159 13.87422509 -4.38498162 11.36000583 -4.37939453 8.84570312 C-4.38141876 8.09345963 -4.38344299 7.34121613 -4.38552856 6.56617737 C-4.36009365 0.41923977 -4.36009365 0.41923977 0 0 Z " fill="#F28718" transform="translate(610.25,450.6875)"/>
<path d="M0 0 C57.75 0 115.5 0 175 0 C175 38.61 175 77.22 175 117 C174.67 117 174.34 117 174 117 C173.67 79.38 173.34 41.76 173 3 C156.231875 3.020625 139.46375 3.04125 122.1875 3.0625 C83.112959 3.08632877 44.06368587 2.97277607 5 2 C3.70717868 12.29502278 3.85442372 22.59841614 3.8671875 32.953125 C3.86651191 34.90012626 3.86553976 36.84712744 3.86428833 38.79412842 C3.86281919 42.86894537 3.86493784 46.94374031 3.86962891 51.01855469 C3.87528075 56.17222612 3.87196536 61.32584549 3.86620712 66.47951508 C3.78782787 91.67433886 3.78782787 91.67433886 4.3828125 116.859375 C4.41317596 117.71412415 4.44353943 118.56887329 4.474823 119.44952393 C4.72496805 124.53080593 5.62584844 129.09939448 7 134 C6.01 133.67 5.02 133.34 4 133 C-5.29507616 92.72133664 0 38.46850622 0 0 Z " fill="#F78411" transform="translate(403,451)"/>
<path d="M0 0 C0.99 0.33 1.98 0.66 3 1 C1.6875 2.60416667 0.375 4.20833333 -0.9375 5.8125 C-1.76507813 6.82699219 -2.59265625 7.84148437 -3.4453125 8.88671875 C-5.00871439 10.79891572 -6.58621706 12.69442558 -8.1796875 14.58203125 C-18.75087254 27.18613649 -27.79941397 40.76372146 -36 55 C-36.7184667 56.2319361 -37.43721651 57.46370713 -38.15625 58.6953125 C-45.35475181 70.29954127 -45.35475181 70.29954127 -50 83 C-50.66 83 -51.32 83 -52 83 C-52.33 85.31 -52.66 87.62 -53 90 C-53.66 90 -54.32 90 -55 90 C-55.66 92.97 -56.32 95.94 -57 99 C-57.66 99 -58.32 99 -59 99 C-58.45602718 93.43697134 -57.00537327 89.0048111 -54.6875 83.9375 C-54.34211182 83.17236084 -53.99672363 82.40722168 -53.64086914 81.61889648 C-47.18105289 67.6158537 -39.74573825 53.71287725 -31 41 C-30.57251465 40.37851074 -30.1450293 39.75702148 -29.70458984 39.11669922 C-20.37498295 25.60692327 -10.48372515 12.6361808 0 0 Z " fill="#F58210" transform="translate(269,293)"/>
<path d="M0 0 C3.41663837 0.44085656 6.0465381 1.48647359 9.08824158 3.01275635 C14.04257079 5.23741881 18.27396805 5.5778453 23.65063477 5.54589844 C25.02785957 5.56140495 25.02785957 5.56140495 26.4329071 5.57722473 C29.43592297 5.60647458 32.43825962 5.60814813 35.44140625 5.609375 C37.53605928 5.62436867 39.63070054 5.6410983 41.72532654 5.65948486 C47.21449347 5.70303709 52.70350094 5.72313064 58.19281006 5.73822021 C63.80376568 5.75783503 69.41455019 5.79980012 75.02539062 5.83984375 C86.01687415 5.91501453 97.00831913 5.9653855 108 6 C107.67 6.66 107.34 7.32 107 8 C95.29052699 8.04642961 83.58107605 8.08192314 71.87152958 8.10362434 C66.43376974 8.1140421 60.99607309 8.1281646 55.55834961 8.15087891 C50.30637939 8.17267891 45.0544698 8.18458372 39.80245781 8.18975449 C37.80309534 8.19343741 35.80373602 8.20062913 33.80439949 8.21146011 C30.99460925 8.22607018 28.18506652 8.22797398 25.37524414 8.22705078 C24.55668442 8.23424133 23.73812469 8.24143188 22.89476013 8.24884033 C17.36938791 8.22931605 12.34190796 7.39977553 7 6 C7 5.34 7 4.68 7 4 C6.030625 3.71125 5.06125 3.4225 4.0625 3.125 C1 2 1 2 0 0 Z " fill="#F7810F" transform="translate(425,606)"/>
<path d="M0 0 C0.72278641 -0.00014603 1.44557281 -0.00029205 2.19026184 -0.0004425 C4.55468863 0.0002484 6.91903442 0.00800187 9.28344727 0.01586914 C10.93254046 0.01773625 12.5816342 0.01915877 14.23072815 0.02015686 C18.55269933 0.02395899 22.87463644 0.03376942 27.19659424 0.04486084 C31.61421244 0.05512468 36.03183618 0.0596651 40.44946289 0.06469727 C49.10377533 0.07539392 57.75806017 0.09244243 66.41235352 0.11352539 C66.41235352 0.77352539 66.41235352 1.43352539 66.41235352 2.11352539 C57.87582004 3.33182572 49.383694 3.24081456 40.78344727 3.21118164 C39.18205306 3.20931342 37.58065829 3.20789142 35.97926331 3.20689392 C31.79212834 3.20310058 27.60502881 3.19329796 23.41790771 3.18218994 C19.13416015 3.17190691 14.85040678 3.16738162 10.56665039 3.16235352 C2.18186862 3.15167242 -6.20288451 3.13463485 -14.58764648 3.11352539 C-14.58764648 2.45352539 -14.58764648 1.79352539 -14.58764648 1.11352539 C-9.66970786 0.3123828 -4.99884696 -0.00854504 0 0 Z " fill="#F7810D" transform="translate(478.587646484375,641.886474609375)"/>
<path d="M0 0 C5.60943224 4.64484733 10.67105797 9.66187478 15.75 14.875 C21.43161034 20.64477826 26.93843106 25.95984635 33.73828125 30.39453125 C36 32 36 32 38.34765625 34.37890625 C41.38374555 37.37922425 44.61965455 39.71184639 48.125 42.125 C55.55357143 47.26785714 55.55357143 47.26785714 58 50 C52.54871391 49.60414261 49.37763584 47.4052778 45.3125 44 C44.39621826 43.25459961 44.39621826 43.25459961 43.46142578 42.49414062 C42.21885274 41.48140956 40.98019389 40.46385596 39.74560547 39.44140625 C38.19866046 38.16404075 36.63377272 36.90847355 35.06640625 35.65625 C25.09781182 27.66979989 15.85717637 18.94139562 6.75 10 C6.08129883 9.35272949 5.41259766 8.70545898 4.72363281 8.03857422 C4.10842773 7.42771973 3.49322266 6.81686523 2.859375 6.1875 C2.30733398 5.64480469 1.75529297 5.10210938 1.18652344 4.54296875 C0 3 0 3 0 0 Z " fill="#F5820F" transform="translate(273,728)"/>
<path d="M0 0 C0.33 0 0.66 0 1 0 C1.01030746 1.07645279 1.02061493 2.15290558 1.03123474 3.26197815 C1.12989351 13.51201105 1.23269595 23.76199556 1.33933926 34.01194859 C1.39401033 39.27886295 1.44732702 44.54578308 1.49731445 49.81274414 C1.54579893 54.91568227 1.59814631 60.01856867 1.65294075 65.12144279 C1.67299154 67.04780693 1.69175503 68.974185 1.70907402 70.90057564 C1.80435278 81.39517035 2.00558602 91.88270973 2.39477539 102.37084961 C2.42442855 103.31611039 2.45408171 104.26137117 2.48463345 105.23527622 C2.71286475 110.76370325 3.46555397 115.68035834 5 121 C4.01 120.67 3.02 120.34 2 120 C-0.43661885 114.05123911 -0.27132877 108.18384157 -0.22705078 101.83227539 C-0.22734283 100.72909973 -0.22763489 99.62592407 -0.22793579 98.48931885 C-0.22654728 94.85868344 -0.21100836 91.22825562 -0.1953125 87.59765625 C-0.19158068 85.07417411 -0.1887345 82.55069053 -0.18673706 80.02720642 C-0.17989229 74.07398209 -0.16414428 68.12082388 -0.14403808 62.16763347 C-0.12163567 55.38647398 -0.11067476 48.60531083 -0.10064721 41.8241235 C-0.07977672 27.88270813 -0.04462795 13.94135813 0 0 Z " fill="#F77D0C" transform="translate(405,464)"/>
<path d="M0 0 C0.66 0 1.32 0 2 0 C1.44378126 3.64720572 0.20892932 5.02019037 -2.625 7.3125 C-5.32861913 9.56631347 -7.87742518 11.83379601 -10.3125 14.375 C-17.34863727 21.49001773 -25.4919075 27.4472883 -33.4375 33.5 C-34.12384521 34.02875732 -34.81019043 34.55751465 -35.51733398 35.10229492 C-36.17032471 35.5944751 -36.82331543 36.08665527 -37.49609375 36.59375 C-38.36512329 37.25407227 -38.36512329 37.25407227 -39.25170898 37.92773438 C-41.15248564 39.09352282 -42.82236703 39.57253319 -45 40 C-45 39.34 -45 38.68 -45 38 C-43.38600386 36.68269433 -41.70586161 35.44595733 -40 34.25 C-38.99066406 33.53199219 -37.98132813 32.81398438 -36.94140625 32.07421875 C-35.97074219 31.38972656 -35.00007812 30.70523438 -34 30 C-28.49297042 26.06640744 -23.44877471 21.79752256 -18.44921875 17.234375 C-14.36639622 13.5096948 -10.2138995 9.86207826 -5.984375 6.3046875 C-5.35015625 5.77101563 -4.7159375 5.23734375 -4.0625 4.6875 C-3.49660156 4.21699219 -2.93070313 3.74648438 -2.34765625 3.26171875 C-0.86554616 2.02049527 -0.86554616 2.02049527 0 0 Z " fill="#F6810F" transform="translate(744,736)"/>
<path d="M0 0 C0.99 0.33 1.98 0.66 3 1 C-2.64524422 6.80205656 -2.64524422 6.80205656 -6 9 C-6.66 9 -7.32 9 -8 9 C-8 9.66 -8 10.32 -8 11 C-10.37191584 12.29761299 -12.74724614 13.58816317 -15.125 14.875 C-15.79015625 15.23980469 -16.4553125 15.60460937 -17.140625 15.98046875 C-23.91320928 19.63235243 -29.30100237 21.26548268 -37 21 C-36.67 20.34 -36.34 19.68 -36 19 C-33.63020048 18.24926198 -31.27358577 17.58178841 -28.875 16.9375 C-22.71176958 15.15206718 -17.30187847 12.82658266 -11.8125 9.5 C-11.20196777 9.13253662 -10.59143555 8.76507324 -9.96240234 8.38647461 C-6.10955135 5.96062531 -3.08473231 3.299676 0 0 Z " fill="#F78310" transform="translate(584,621)"/>
<path d="M0 0 C3.74077384 4.5585244 7.10428611 9.33970069 10.46484375 14.1796875 C12.73907936 17.62069167 12.73907936 17.62069167 16 20 C16.95928739 21.68702265 17.9156433 23.37588248 18.84765625 25.078125 C20.60082791 28.00205876 22.75328534 30.44124163 25 33 C22 33 22 33 20.30859375 31.5234375 C15.61520667 26.13437092 11.40585176 20.5319352 7.41381836 14.61083984 C4.93904314 10.90810096 4.93904314 10.90810096 1 9 C1.33 8.34 1.66 7.68 2 7 C1.34 6.01 0.68 5.02 0 4 C0 2.68 0 1.36 0 0 Z " fill="#F58210" transform="translate(240,685)"/>
<path d="M0 0 C0.565979 0.21696533 1.13195801 0.43393066 1.71508789 0.6574707 C-0.54574037 3.45025856 -3.04788169 4.40022245 -6.30371094 5.75439453 C-9.74177787 7.32154297 -12.8962069 9.34780089 -16.09741211 11.3449707 C-23.01747025 15.6574707 -23.01747025 15.6574707 -25.28491211 15.6574707 C-25.28491211 16.3174707 -25.28491211 16.9774707 -25.28491211 17.6574707 C-32.03491211 21.6574707 -32.03491211 21.6574707 -34.28491211 21.6574707 C-33.07239586 18.01992196 -32.15168841 17.67222822 -28.94506836 15.73168945 C-28.04594727 15.1819043 -27.14682617 14.63211914 -26.22045898 14.06567383 C-25.27235352 13.4978418 -24.32424805 12.93000977 -23.34741211 12.3449707 C-22.43411133 11.78874023 -21.52081055 11.23250977 -20.57983398 10.65942383 C-18.74016168 9.54103847 -16.89589322 8.4301787 -15.04711914 7.3269043 C-13.18281962 6.20015159 -11.33487093 5.0459557 -9.50317383 3.86694336 C-8.18663818 3.03042236 -8.18663818 3.03042236 -6.84350586 2.17700195 C-6.06160889 1.66886963 -5.27971191 1.1607373 -4.47412109 0.63720703 C-2.28491211 -0.3425293 -2.28491211 -0.3425293 0 0 Z " fill="#F6820F" transform="translate(359.284912109375,224.342529296875)"/>
<path d="M0 0 C4.44660986 1.53402858 6.58400673 5.07000925 9.1875 8.75 C9.66219727 9.41233643 10.13689453 10.07467285 10.62597656 10.75708008 C12.09835603 12.82838108 13.55210172 14.91152531 15 17 C15.46293457 17.66370605 15.92586914 18.32741211 16.40283203 19.01123047 C17.7033806 20.89178516 18.98118653 22.7854247 20.25 24.6875 C20.64469482 25.26274414 21.03938965 25.83798828 21.44604492 26.43066406 C24.06111431 30.44907245 24.06111431 30.44907245 23.734375 33.39453125 C23.49203125 33.92433594 23.2496875 34.45414062 23 35 C22.68546875 34.48050781 22.3709375 33.96101563 22.046875 33.42578125 C20.15059453 30.33575795 18.30292951 27.36919534 16 24.5625 C14.28224353 22.36162452 13.10024889 20.38993644 11.8125 17.9375 C8.99945899 12.69179774 5.42433658 8.09800093 1.79296875 3.40625 C0 1 0 1 0 0 Z " fill="#F68210" transform="translate(770,313)"/>
<path d="M0 0 C0.33 0 0.66 0 1 0 C1.01458252 1.11971191 1.02916504 2.23942383 1.04418945 3.39306641 C1.10234886 7.56428274 1.17958023 11.73496919 1.26245117 15.90576172 C1.29561773 17.70775729 1.32367525 19.50985467 1.34643555 21.31201172 C1.38013432 23.90896823 1.43245649 26.50499866 1.48828125 29.1015625 C1.49467117 29.9017984 1.5010611 30.7020343 1.50764465 31.52651978 C1.63550942 36.43807508 2.47814432 39.66429087 5 44 C5.33 44.99 5.66 45.98 6 47 C8.09719872 48.02281518 8.09719872 48.02281518 10.5625 48.6875 C11.80193359 49.06455078 11.80193359 49.06455078 13.06640625 49.44921875 C13.70449219 49.63097656 14.34257813 49.81273437 15 50 C15 50.33 15 50.66 15 51 C10.32740781 51.3259948 7.70722917 50.92675987 4 48 C-0.4207899 42.78346792 -0.54218842 38.74371572 -0.390625 32.2265625 C-0.38496521 31.3028183 -0.37930542 30.3790741 -0.37347412 29.42733765 C-0.35118052 26.49268582 -0.30099748 23.55927939 -0.25 20.625 C-0.22992592 18.62892395 -0.21167674 16.63282866 -0.1953125 14.63671875 C-0.15133872 9.75733662 -0.08235999 4.87887907 0 0 Z " fill="#F7800E" transform="translate(537,349)"/>
<path d="M0 0 C0.33 0 0.66 0 1 0 C1.17048668 4.03407823 1.33066357 8.06843515 1.48217773 12.10327148 C1.53483303 13.46958847 1.59007924 14.83580861 1.64819336 16.2019043 C2.02981182 25.22469219 1.91971187 34.01290936 1 43 C0.67 43 0.34 43 0 43 C-1.04285919 38.72966249 -1.14535299 34.58464373 -1.1328125 30.21484375 C-1.13376923 29.47673965 -1.13472595 28.73863556 -1.13571167 27.97816467 C-1.13638968 26.42416295 -1.13456194 24.87015833 -1.13037109 23.31616211 C-1.12500978 20.94182977 -1.13033285 18.56768593 -1.13671875 16.19335938 C-1.13605805 14.67968708 -1.13477706 13.16601491 -1.1328125 11.65234375 C-1.13483673 10.94496567 -1.13686096 10.23758759 -1.13894653 9.5087738 C-1.12322479 6.19568058 -1.02369189 3.16815866 0 0 Z " fill="#F6800E" transform="translate(418,346)"/>
<path d="M0 0 C-0.33 0.66 -0.66 1.32 -1 2 C-12.22 2 -23.44 2 -35 2 C-31.24853796 -0.5009747 -28.05210571 -0.49264346 -23.6875 -0.6875 C-22.89166504 -0.7280249 -22.09583008 -0.7685498 -21.27587891 -0.81030273 C-14.12025667 -1.11411287 -7.12635476 -0.74471553 0 0 Z " fill="#F78311" transform="translate(516,188)"/>
<path d="M0 0 C1.0487133 2.68153003 1.07796438 3.78994955 0.05957031 6.53369141 C-0.42930664 7.46358887 -0.91818359 8.39348633 -1.421875 9.3515625 C-1.95296875 10.36734375 -2.4840625 11.383125 -3.03125 12.4296875 C-3.5984375 13.48414063 -4.165625 14.53859375 -4.75 15.625 C-5.30171875 16.6871875 -5.8534375 17.749375 -6.421875 18.84375 C-10.59618693 26.73079128 -10.59618693 26.73079128 -14 29 C-13.44537439 25.62554102 -12.67783815 23.06292678 -10.9375 20.125 C-8.42697152 15.77587861 -6.04166469 11.37248963 -3.6875 6.9375 C-3.3258374 6.25768066 -2.9641748 5.57786133 -2.59155273 4.87744141 C-1.72696962 3.25201686 -0.8633783 1.62606483 0 0 Z " fill="#F5830F" transform="translate(807,647)"/>
<path d="M0 0 C0 0.66 0 1.32 0 2 C-9.42332955 3.99888809 -18.42706002 4.21867122 -28 4 C-28 3.67 -28 3.34 -28 3 C-25.02211984 2.49106423 -22.0430746 1.99269364 -19.0625 1.5 C-18.23169922 1.35691406 -17.40089844 1.21382812 -16.54492188 1.06640625 C-10.95396627 0.15270923 -5.66506422 -0.13719631 0 0 Z " fill="#F6820E" transform="translate(574,828)"/>
<path d="M0 0 C0.99 0.33 1.98 0.66 3 1 C2.04882866 2.1725131 1.08882991 3.33787015 0.125 4.5 C-0.67550781 5.47453125 -0.67550781 5.47453125 -1.4921875 6.46875 C-1.98976563 6.9740625 -2.48734375 7.479375 -3 8 C-3.66 8 -4.32 8 -5 8 C-5.33 8.99 -5.66 9.98 -6 11 C-8.28515625 12.82421875 -8.28515625 12.82421875 -11.0625 14.6875 C-11.98160156 15.31011719 -12.90070312 15.93273437 -13.84765625 16.57421875 C-14.91306641 17.27998047 -14.91306641 17.27998047 -16 18 C-16.66 17.67 -17.32 17.34 -18 17 C-14.10826244 12.84881327 -9.81662781 9.42765508 -5.3046875 5.96484375 C-3.14312995 4.12202435 -1.59325638 2.33781737 0 0 Z " fill="#F7840F" transform="translate(661,538)"/>
<path d="M0 0 C-3.94327549 2.58091543 -7.98679527 4.21872307 -12.4375 5.6875 C-13.40139648 6.02491211 -13.40139648 6.02491211 -14.38476562 6.36914062 C-18.38054515 7.70377155 -21.79648411 8.24038653 -26 8 C-21.80908844 4.59974801 -17.5318435 3.32454578 -12.4375 1.75 C-11.57447266 1.46898437 -10.71144531 1.18796875 -9.82226562 0.8984375 C-8.99275391 0.63804687 -8.16324219 0.37765625 -7.30859375 0.109375 C-6.17635376 -0.24688965 -6.17635376 -0.24688965 -5.02124023 -0.61035156 C-3 -1 -3 -1 0 0 Z " fill="#F6820E" transform="translate(631,813)"/>
<path d="M0 0 C5.33739149 0.69843087 10.22975512 2.23781707 15.3125 3.9375 C16.13556641 4.20240234 16.95863281 4.46730469 17.80664062 4.74023438 C18.58845703 4.99998047 19.37027344 5.25972656 20.17578125 5.52734375 C20.88645752 5.76187256 21.59713379 5.99640137 22.3293457 6.23803711 C24 7 24 7 25 9 C18.91121808 8.45339344 13.71354433 7.07141474 8 4.9375 C6.83791016 4.51500977 6.83791016 4.51500977 5.65234375 4.08398438 C3.76549033 3.39679702 1.88233849 2.69945987 0 2 C0 1.34 0 0.68 0 0 Z " fill="#F58210" transform="translate(396,812)"/>
<path d="M0 0 C3.6041498 -0.02900455 7.20826962 -0.04680018 10.8125 -0.0625 C11.83666016 -0.07087891 12.86082031 -0.07925781 13.91601562 -0.08789062 C15.39038086 -0.09272461 15.39038086 -0.09272461 16.89453125 -0.09765625 C17.80050049 -0.10289307 18.70646973 -0.10812988 19.63989258 -0.11352539 C22 0 22 0 25 1 C25 1.66 25 2.32 25 3 C16.40400201 3.22588024 8.39817396 2.91958262 0 1 C0 0.67 0 0.34 0 0 Z " fill="#F98411" transform="translate(437,642)"/>
<path d="M0 0 C0.66 0 1.32 0 2 0 C0.65813526 3.18687626 -0.5174314 4.65709388 -3.51953125 6.359375 C-4.21240234 6.75253906 -4.90527344 7.14570312 -5.61914062 7.55078125 C-6.70485352 8.14439453 -6.70485352 8.14439453 -7.8125 8.75 C-8.52470703 9.16121094 -9.23691406 9.57242188 -9.97070312 9.99609375 C-13.7517784 12.10174344 -16.54060326 13.59575438 -21 13 C-17.02367589 9.57080576 -12.88655715 7.19331403 -8.25 4.8125 C-3.84531348 2.79093693 -3.84531348 2.79093693 0 0 Z " fill="#F6820F" transform="translate(679,787)"/>
<path d="M0 0 C0.33 0 0.66 0 1 0 C1.27567251 7.7800907 0.96888359 15.4283057 -1 23 C-1.66 23.66 -2.32 24.32 -3 25 C-3.46112386 16.39235455 -1.72848437 8.38520694 0 0 Z " fill="#F68110" transform="translate(835,548)"/>
<path d="M0 0 C0.33 0.99 0.66 1.98 1 3 C-0.5372777 5.14088964 -2.06634629 7.04355173 -3.8125 9 C-7.60121166 13.34475161 -7.60121166 13.34475161 -11 18 C-11.99 17.67 -12.98 17.34 -14 17 C-13.21654285 15.82780457 -12.42297164 14.66236332 -11.625 13.5 C-11.18414063 12.8503125 -10.74328125 12.200625 -10.2890625 11.53125 C-9.65097656 10.77328125 -9.65097656 10.77328125 -9 10 C-8.34 10 -7.68 10 -7 10 C-6.773125 9.46375 -6.54625 8.9275 -6.3125 8.375 C-4.56617944 5.21499137 -2.3597151 2.7323017 0 0 Z " fill="#F6810F" transform="translate(775,701)"/>
<path d="M0 0 C-1 3 -1 3 -4.375 4.6875 C-9.52570868 6.48556558 -14.6118425 6.26742693 -20 6 C-16.87124567 3.91416378 -14.62998305 3.28716515 -11 2.4375 C-0.69430052 0 -0.69430052 0 0 0 Z " fill="#F58210" transform="translate(554,607)"/>
<path d="M0 0 C13.6332574 -0.18451025 13.6332574 -0.18451025 20 1 C20 1.66 20 2.32 20 3 C12.95559921 3.21133202 6.75887425 3.07965362 0 1 C0 0.67 0 0.34 0 0 Z " fill="#F78310" transform="translate(548,190)"/>
<path d="M0 0 C0.33 0 0.66 0 1 0 C1.34103465 3.14504693 1.67137463 6.29113417 2 9.4375 C2.09539062 10.31599609 2.19078125 11.19449219 2.2890625 12.09960938 C2.87468396 17.76758855 3.09274645 23.30188968 3 29 C2.67 29 2.34 29 2 29 C-0.20971003 22.79715256 -0.23565619 17.10398302 -0.125 10.5625 C-0.11597656 9.54478516 -0.10695312 8.52707031 -0.09765625 7.47851562 C-0.07424698 4.98542844 -0.041457 2.49284141 0 0 Z " fill="#F87F0C" transform="translate(189,530)"/>
<path d="M0 0 C-5.82185199 3.4821006 -11.48180123 6.10463724 -18 8 C-18.33 7.34 -18.66 6.68 -19 6 C-16.40074504 4.80057395 -13.79654493 3.61527179 -11.1875 2.4375 C-10.08051758 1.92413086 -10.08051758 1.92413086 -8.95117188 1.40039062 C-8.23896484 1.08134766 -7.52675781 0.76230469 -6.79296875 0.43359375 C-6.1383667 0.13509521 -5.48376465 -0.16340332 -4.80932617 -0.47094727 C-3 -1 -3 -1 0 0 Z " fill="#F6820F" transform="translate(380,216)"/>
<path d="M0 0 C0 0.66 0 1.32 0 2 C-2.434964 2.69784331 -4.87227105 3.38353822 -7.3125 4.0625 C-8.00279297 4.26166016 -8.69308594 4.46082031 -9.40429688 4.66601562 C-14.66015625 6.11328125 -14.66015625 6.11328125 -18 5 C-12.30522346 1.20348231 -6.83808871 -0.3335653 0 0 Z " fill="#F7820F" transform="translate(423,200)"/>
<path d="M0 0 C5.69139902 1.09698167 10.74567937 2.54053077 16 5 C16 5.33 16 5.66 16 6 C10.04492601 5.6083965 5.37180176 4.62875405 0 2 C0 1.34 0 0.68 0 0 Z " fill="#F8830F" transform="translate(417,635)"/>
<path d="M0 0 C0.33 0 0.66 0 1 0 C0.61026207 5.92670444 -0.2415874 10.70384782 -3 16 C-3.66 16.33 -4.32 16.66 -5 17 C-3.83348574 11.07136283 -2.24480642 5.61201606 0 0 Z " fill="#F6820F" transform="translate(823,605)"/>
<path d="M0 0 C0.33 0 0.66 0 1 0 C1.37851209 5.93002267 0.10575375 10.47239641 -2 16 C-2.66 16 -3.32 16 -4 16 C-3.71515154 14.26969709 -3.42180062 12.54079286 -3.125 10.8125 C-2.96257813 9.84957031 -2.80015625 8.88664063 -2.6328125 7.89453125 C-2.01960483 5.08967396 -1.14333657 2.62775253 0 0 Z " fill="#F58210" transform="translate(828,587)"/>
<path d="M0 0 C3.73237836 3.21756755 5.42183083 6.34440093 7 11 C7.1875 14.9375 7.1875 14.9375 7 18 C5.28960242 14.69110001 3.81757164 11.30848923 2.375 7.875 C1.92898438 6.82054687 1.48296875 5.76609375 1.0234375 4.6796875 C0 2 0 2 0 0 Z " fill="#F78211" transform="translate(811,382)"/>
<path d="M0 0 C5.77807024 -0.2358396 10.51324804 0.13216954 16 2 C16 2.33 16 2.66 16 3 C10.26157749 3.20413361 5.39460953 3.27141454 0 1 C0 0.67 0 0.34 0 0 Z " fill="#F6830E" transform="translate(570,193)"/>
<path d="M0 0 C4.51347752 2.32121701 7.10087768 4.90712143 10 9 C9.67 9.99 9.34 10.98 9 12 C8.443125 11.278125 7.88625 10.55625 7.3125 9.8125 C5.0270024 6.92913577 5.0270024 6.92913577 2.25 4.3125 C0 2 0 2 0 0 Z " fill="#F68211" transform="translate(750,289)"/>
<path d="M0 0 C5.44208234 0.34013015 8.93668198 3.70296528 13 7 C12.34 7.66 11.68 8.32 11 9 C9.16384919 7.69144447 7.33114211 6.37805538 5.5 5.0625 C4.4790625 4.33160156 3.458125 3.60070312 2.40625 2.84765625 C1.6121875 2.23792969 0.818125 1.62820312 0 1 C0 0.67 0 0.34 0 0 Z " fill="#F5810F" transform="translate(691,240)"/>
<path d="M0 0 C4.85963179 0.60745397 8.7405518 2.72758967 13 5 C12.67 5.66 12.34 6.32 12 7 C8.04 5.35 4.08 3.7 0 2 C0 1.34 0 0.68 0 0 Z " fill="#F6810E" transform="translate(643,214)"/>
<path d="M0 0 C0 0.66 0 1.32 0 2 C-2.99480917 2.8723412 -5.63575911 3.10829766 -8.75 3.0625 C-9.54921875 3.05347656 -10.3484375 3.04445313 -11.171875 3.03515625 C-11.77515625 3.02355469 -12.3784375 3.01195312 -13 3 C-12.67 2.34 -12.34 1.68 -12 1 C-8.01624339 -0.17169312 -4.12560776 -0.08089427 0 0 Z " fill="#F58210" transform="translate(589,825)"/>
<path d="M0 0 C-1.50383297 4.21073233 -4.20664956 5.83237117 -8 8 C-8.99 8 -9.98 8 -11 8 C-11 7.34 -11 6.68 -11 6 C-9.1015625 4.4921875 -9.1015625 4.4921875 -6.625 2.875 C-5.81289063 2.33617187 -5.00078125 1.79734375 -4.1640625 1.2421875 C-2 0 -2 0 0 0 Z " fill="#F68210" transform="translate(698,776)"/>
<path d="M0 0 C-1.49531636 3.80625982 -3.58980056 5.77940501 -7 8 C-9.8125 8.25 -9.8125 8.25 -12 8 C-11.195625 7.4121875 -11.195625 7.4121875 -10.375 6.8125 C-8.47612374 5.36335759 -6.68140509 3.87096714 -4.875 2.3125 C-2 0 -2 0 0 0 Z " fill="#F6820F" transform="translate(565,392)"/>
<path d="M0 0 C7.625 0.875 7.625 0.875 11 2 C11 2.99 11 3.98 11 5 C7.30099992 4.11223998 3.65449539 3.05418136 0 2 C0 1.34 0 0.68 0 0 Z " fill="#F68210" transform="translate(616,204)"/>
<path d="M0 0 C1.98073365 0.280828 3.95958448 0.57496614 5.9375 0.875 C7.59072266 1.11863281 7.59072266 1.11863281 9.27734375 1.3671875 C10.17582031 1.57601562 11.07429688 1.78484375 12 2 C12.33 2.66 12.66 3.32 13 4 C8.48382401 4.07654536 4.40914783 4.10228696 0 3 C0 2.01 0 1.02 0 0 Z " fill="#F68310" transform="translate(438,824)"/>
<path d="M0 0 C-2.34591852 2.7710688 -4.14776201 3.52059284 -7.6875 4.1875 C-8.49574219 4.34605469 -9.30398438 4.50460938 -10.13671875 4.66796875 C-11.05904297 4.83232422 -11.05904297 4.83232422 -12 5 C-11 2 -11 2 -8.8125 0.8125 C-5.74609689 -0.07334979 -3.17561845 -0.14770318 0 0 Z " fill="#F68110" transform="translate(404,206)"/>
<path d="M0 0 C1 3 1 3 0.07421875 5.04296875 C-0.61220703 6.10451172 -0.61220703 6.10451172 -1.3125 7.1875 C-1.76238281 7.90292969 -2.21226562 8.61835937 -2.67578125 9.35546875 C-3.11277344 9.89816406 -3.54976562 10.44085937 -4 11 C-4.66 11 -5.32 11 -6 11 C-4.74194623 6.49197399 -3.09592835 3.5087188 0 0 Z " fill="#F5810D" transform="translate(791,677)"/>
<path d="M0 0 C2 1 2 1 3.1875 4.3125 C3.90649268 7.57562063 4.20286847 8.99282882 3 12 C0.58314288 7.77050005 -0.34833144 4.87664009 0 0 Z " fill="#F6820F" transform="translate(201,602)"/>
<path d="M0 0 C3.91841827 1.30613942 6.32640809 2.83129848 9 6 C9 6.66 9 7.32 9 8 C8.01 8 7.02 8 6 8 C6 7.34 6 6.68 6 6 C5.34 6 4.68 6 4 6 C2.61061923 4.03852126 1.2739589 2.03833424 0 0 Z " fill="#F68211" transform="translate(393,617)"/>
<path d="M0 0 C0.66 0 1.32 0 2 0 C5.22265625 5.17578125 5.22265625 5.17578125 6 7 C5.67 7.99 5.34 8.98 5 10 C4.16121545 8.71186658 3.32913217 7.41936744 2.5 6.125 C2.0359375 5.40570313 1.571875 4.68640625 1.09375 3.9453125 C0 2 0 2 0 0 Z " fill="#F58110" transform="translate(794,348)"/>
<path d="M0 0 C0.66 0 1.32 0 2 0 C1.40353695 3.34019306 0.31705841 5.50470633 -2 8 C-2.99 8 -3.98 8 -5 8 C-4.67 7.01 -4.34 6.02 -4 5 C-3.34 5 -2.68 5 -2 5 C-1.34 3.35 -0.68 1.7 0 0 Z " fill="#F7800E" transform="translate(752,727)"/>
<path d="M0 0 C0.33 0 0.66 0 1 0 C1.08096803 1.45742463 1.13917774 2.91612807 1.1875 4.375 C1.22230469 5.18710937 1.25710938 5.99921875 1.29296875 6.8359375 C1.19628906 7.55007813 1.09960938 8.26421875 1 9 C0.01 9.66 -0.98 10.32 -2 11 C-1 3.57142857 -1 3.57142857 0 0 Z " fill="#F88210" transform="translate(831,574)"/>
<path d="M0 0 C4.21912747 0.4794463 6.79663178 1.16625119 10 4 C7 5 7 5 5.17578125 4.22265625 C3.45052083 3.1484375 1.72526042 2.07421875 0 1 C0 0.67 0 0.34 0 0 Z " fill="#F68210" transform="translate(661,223)"/>
<path d="M0 0 C6.57403846 -0.37211538 6.57403846 -0.37211538 8.73046875 1.51171875 C9.35888672 2.24841797 9.35888672 2.24841797 10 3 C8.5199159 2.88637738 7.04089926 2.75877092 5.5625 2.625 C4.73878906 2.55539062 3.91507813 2.48578125 3.06640625 2.4140625 C2.38449219 2.27742188 1.70257812 2.14078125 1 2 C0.67 1.34 0.34 0.68 0 0 Z " fill="#F7830F" transform="translate(624,424)"/>
<path d="M0 0 C-1 2 -1 2 -3.375 3.125 C-6 4 -6 4 -9 4 C-9 3.34 -9 2.68 -9 2 C-5.86501708 0.14223235 -3.62528568 -0.20140476 0 0 Z " fill="#F68310" transform="translate(390,211)"/>
<path d="M0 0 C2.02045442 0.60183749 4.02111039 1.27306096 6 2 C6.33 2.66 6.66 3.32 7 4 C4.69 3.67 2.38 3.34 0 3 C0 2.01 0 1.02 0 0 Z " fill="#F5820F" transform="translate(388,808)"/>
<path d="M0 0 C2.9375 0.75 2.9375 0.75 6 2 C6.875 4.125 6.875 4.125 7 6 C3.535 4.02 3.535 4.02 0 2 C0 1.34 0 0.68 0 0 Z " fill="#F68310" transform="translate(627,456)"/>
<path d="M0 0 C1.0209375 0.2165625 1.0209375 0.2165625 2.0625 0.4375 C5.36273082 1.06945909 8.67144426 1.54313941 12 2 C12 2.33 12 2.66 12 3 C10.56344146 3.08131463 9.1255517 3.13933559 7.6875 3.1875 C6.48673828 3.23970703 6.48673828 3.23970703 5.26171875 3.29296875 C2.52148416 2.93801608 1.70828921 2.10633718 0 0 Z " fill="#F6800E" transform="translate(483,397)"/>
<path d="M0 0 C3.16115776 1.36983503 3.9927092 1.9890638 6 5 C5.67 5.99 5.34 6.98 5 8 C4.16382818 6.8562364 3.33113541 5.70992861 2.5 4.5625 C2.0359375 3.92441406 1.571875 3.28632813 1.09375 2.62890625 C0 1 0 1 0 0 Z " fill="#F57F0D" transform="translate(763,304)"/>
<path d="M0 0 C0.33 0 0.66 0 1 0 C1 1.98 1 3.96 1 6 C0.67 6 0.34 6 0 6 C0 4.02 0 2.04 0 0 Z " fill="#F58F23" transform="translate(580,466)"/>
<path d="M0 0 C0.33 0 0.66 0 1 0 C1 1.65 1 3.3 1 5 C0.67 5 0.34 5 0 5 C0 3.35 0 1.7 0 0 Z " fill="#F48E21" transform="translate(580,523)"/>
<path d="M0 0 C0.33 0 0.66 0 1 0 C1 1.65 1 3.3 1 5 C0.67 5 0.34 5 0 5 C0 3.35 0 1.7 0 0 Z " fill="#F58F23" transform="translate(580,475)"/>
<path d="M0 0 C3 1 3 1 3 1 Z " fill="#F49126" transform="translate(445,615)"/>
<path d="M0 0 C0.99 0.495 0.99 0.495 2 1 C1.01 1.495 1.01 1.495 0 2 C0 1.34 0 0.68 0 0 Z " fill="#F69024" transform="translate(436,614)"/>
<path d="" fill="#F49024" transform="translate(0,0)"/>
<path d="" fill="#F69124" transform="translate(0,0)"/>
<path d="" fill="#F69022" transform="translate(0,0)"/>
<path d="" fill="#F59023" transform="translate(0,0)"/>
<path d="" fill="#F68E23" transform="translate(0,0)"/>
<path d="" fill="#F69020" transform="translate(0,0)"/>
<path d="" fill="#F68F20" transform="translate(0,0)"/>
<path d="" fill="#F59021" transform="translate(0,0)"/>
<path d="" fill="#EE8E26" transform="translate(0,0)"/>
<path d="M0 0 C2 1 2 1 2 1 Z " fill="#F28F25" transform="translate(534,615)"/>
<path d="M0 0 C2 1 2 1 2 1 Z " fill="#F39226" transform="translate(495,615)"/>
<path d="M0 0 C2 1 2 1 2 1 Z " fill="#F39226" transform="translate(442,615)"/>
<path d="" fill="#F58F25" transform="translate(0,0)"/>
<path d="" fill="#F49124" transform="translate(0,0)"/>
<path d="" fill="#F78F24" transform="translate(0,0)"/>
<path d="" fill="#F68F23" transform="translate(0,0)"/>
<path d="" fill="#F59024" transform="translate(0,0)"/>
<path d="" fill="#F78F21" transform="translate(0,0)"/>
<path d="" fill="#F69023" transform="translate(0,0)"/>
<path d="" fill="#F38F22" transform="translate(0,0)"/>
<path d="" fill="#F38F22" transform="translate(0,0)"/>
<path d="" fill="#F59021" transform="translate(0,0)"/>
<path d="" fill="#F58D21" transform="translate(0,0)"/>
<path d="" fill="#ED8E26" transform="translate(0,0)"/>
<path d="M0 0 C2 1 2 1 2 1 Z " fill="#F09027" transform="translate(556,188)"/>
<path d="" fill="#4A4234" transform="translate(0,0)"/>
<path d="" fill="#6E4918" transform="translate(0,0)"/>
<path d="" fill="#5D4018" transform="translate(0,0)"/>
<path d="" fill="#483C2C" transform="translate(0,0)"/>
<path d="" fill="#6B471C" transform="translate(0,0)"/>
<path d="" fill="#8E5A20" transform="translate(0,0)"/>
<path d="" fill="#6F471D" transform="translate(0,0)"/>
<path d="" fill="#F08D23" transform="translate(0,0)"/>
<path d="" fill="#F18D26" transform="translate(0,0)"/>
<path d="" fill="#EE8E21" transform="translate(0,0)"/>
<path d="" fill="#F08D25" transform="translate(0,0)"/>
<path d="" fill="#EE8F26" transform="translate(0,0)"/>
<path d="" fill="#EA8E22" transform="translate(0,0)"/>
<path d="" fill="#EF8D26" transform="translate(0,0)"/>
<path d="" fill="#EF8D26" transform="translate(0,0)"/>
<path d="" fill="#F08E26" transform="translate(0,0)"/>
<path d="" fill="#F08D25" transform="translate(0,0)"/>
<path d="" fill="#F08C24" transform="translate(0,0)"/>
<path d="" fill="#ED8922" transform="translate(0,0)"/>
<path d="" fill="#EF8A21" transform="translate(0,0)"/>
<path d="" fill="#F18B23" transform="translate(0,0)"/>
<path d="" fill="#EC8D23" transform="translate(0,0)"/>
<path d="" fill="#6A4B21" transform="translate(0,0)"/>
<path d="" fill="#EB8E26" transform="translate(0,0)"/>
<path d="" fill="#EF8D25" transform="translate(0,0)"/>
<path d="" fill="#EE8E26" transform="translate(0,0)"/>
<path d="" fill="#EB8D24" transform="translate(0,0)"/>
<path d="" fill="#EC8D25" transform="translate(0,0)"/>
<path d="" fill="#EF8D27" transform="translate(0,0)"/>
<path d="" fill="#EB8E28" transform="translate(0,0)"/>
<path d="" fill="#F69225" transform="translate(0,0)"/>
<path d="" fill="#F49127" transform="translate(0,0)"/>
<path d="" fill="#F59221" transform="translate(0,0)"/>
<path d="" fill="#F59224" transform="translate(0,0)"/>
<path d="" fill="#F39324" transform="translate(0,0)"/>
<path d="" fill="#F39225" transform="translate(0,0)"/>
<path d="" fill="#EC8E25" transform="translate(0,0)"/>
<path d="" fill="#F58F24" transform="translate(0,0)"/>
<path d="" fill="#F29126" transform="translate(0,0)"/>
<path d="" fill="#F59126" transform="translate(0,0)"/>
<path d="" fill="#F39127" transform="translate(0,0)"/>
<path d="" fill="#F49427" transform="translate(0,0)"/>
<path d="" fill="#F79123" transform="translate(0,0)"/>
<path d="" fill="#F48F23" transform="translate(0,0)"/>
<path d="" fill="#EF8D25" transform="translate(0,0)"/>
<path d="" fill="#F49126" transform="translate(0,0)"/>
<path d="" fill="#F08C21" transform="translate(0,0)"/>
<path d="" fill="#F29025" transform="translate(0,0)"/>
<path d="" fill="#F79126" transform="translate(0,0)"/>
<path d="" fill="#F99523" transform="translate(0,0)"/>
<path d="" fill="#EE8B26" transform="translate(0,0)"/>
<path d="" fill="#F89022" transform="translate(0,0)"/>
<path d="" fill="#F78F23" transform="translate(0,0)"/>
<path d="" fill="#F39023" transform="translate(0,0)"/>
<path d="" fill="#F08F29" transform="translate(0,0)"/>
<path d="" fill="#F59222" transform="translate(0,0)"/>
<path d="" fill="#EE8D25" transform="translate(0,0)"/>
<path d="" fill="#F59327" transform="translate(0,0)"/>
<path d="" fill="#F29024" transform="translate(0,0)"/>
<path d="" fill="#F58D25" transform="translate(0,0)"/>
<path d="" fill="#F39326" transform="translate(0,0)"/>
<path d="" fill="#F69024" transform="translate(0,0)"/>
<path d="" fill="#F59123" transform="translate(0,0)"/>
<path d="" fill="#EF8D26" transform="translate(0,0)"/>
<path d="" fill="#F89222" transform="translate(0,0)"/>
<path d="" fill="#F69124" transform="translate(0,0)"/>
<path d="" fill="#F69025" transform="translate(0,0)"/>
<path d="" fill="#EF9026" transform="translate(0,0)"/>
<path d="" fill="#F49425" transform="translate(0,0)"/>
<path d="" fill="#F89524" transform="translate(0,0)"/>
<path d="" fill="#F58D25" transform="translate(0,0)"/>
<path d="" fill="#F58F24" transform="translate(0,0)"/>
<path d="" fill="#F99121" transform="translate(0,0)"/>
<path d="" fill="#F08D28" transform="translate(0,0)"/>
<path d="" fill="#F28D24" transform="translate(0,0)"/>
<path d="" fill="#F38F23" transform="translate(0,0)"/>
<path d="" fill="#F69225" transform="translate(0,0)"/>
<path d="" fill="#F79426" transform="translate(0,0)"/>
<path d="" fill="#F69023" transform="translate(0,0)"/>
<path d="" fill="#F49026" transform="translate(0,0)"/>
<path d="" fill="#F48F24" transform="translate(0,0)"/>
<path d="" fill="#F49123" transform="translate(0,0)"/>
<path d="" fill="#F58F22" transform="translate(0,0)"/>
<path d="" fill="#F69023" transform="translate(0,0)"/>
<path d="" fill="#F38E26" transform="translate(0,0)"/>
<path d="" fill="#F59325" transform="translate(0,0)"/>
<path d="" fill="#F79221" transform="translate(0,0)"/>
<path d="" fill="#EF9028" transform="translate(0,0)"/>
<path d="" fill="#F49224" transform="translate(0,0)"/>
<path d="" fill="#F89123" transform="translate(0,0)"/>
<path d="" fill="#F49224" transform="translate(0,0)"/>
<path d="" fill="#F59023" transform="translate(0,0)"/>
<path d="" fill="#ED8D28" transform="translate(0,0)"/>
<path d="" fill="#F68E24" transform="translate(0,0)"/>
<path d="" fill="#F69424" transform="translate(0,0)"/>
<path d="" fill="#F09128" transform="translate(0,0)"/>
<path d="" fill="#F49424" transform="translate(0,0)"/>
<path d="" fill="#F69027" transform="translate(0,0)"/>
<path d="" fill="#F68F26" transform="translate(0,0)"/>
<path d="" fill="#F49023" transform="translate(0,0)"/>
<path d="" fill="#F49228" transform="translate(0,0)"/>
<path d="" fill="#F39125" transform="translate(0,0)"/>
<path d="" fill="#F68F24" transform="translate(0,0)"/>
<path d="" fill="#F49122" transform="translate(0,0)"/>
<path d="" fill="#F79122" transform="translate(0,0)"/>
<path d="" fill="#F58E23" transform="translate(0,0)"/>
<path d="" fill="#F59024" transform="translate(0,0)"/>
<path d="" fill="#F39127" transform="translate(0,0)"/>
<path d="" fill="#F68F24" transform="translate(0,0)"/>
<path d="" fill="#F79126" transform="translate(0,0)"/>
<path d="" fill="#ED8F27" transform="translate(0,0)"/>
<path d="" fill="#ED8E28" transform="translate(0,0)"/>
<path d="" fill="#F59024" transform="translate(0,0)"/>
<path d="" fill="#EF9028" transform="translate(0,0)"/>
<path d="" fill="#F59123" transform="translate(0,0)"/>
<path d="" fill="#F59324" transform="translate(0,0)"/>
<path d="" fill="#F79324" transform="translate(0,0)"/>
<path d="" fill="#F39426" transform="translate(0,0)"/>
<path d="" fill="#F79423" transform="translate(0,0)"/>
<path d="" fill="#F39324" transform="translate(0,0)"/>
<path d="" fill="#F59124" transform="translate(0,0)"/>
<path d="" fill="#F58F27" transform="translate(0,0)"/>
<path d="" fill="#F69426" transform="translate(0,0)"/>
<path d="" fill="#F58F23" transform="translate(0,0)"/>
<path d="" fill="#F29024" transform="translate(0,0)"/>
<path d="" fill="#F59227" transform="translate(0,0)"/>
<path d="" fill="#EC8B2A" transform="translate(0,0)"/>
<path d="" fill="#F39226" transform="translate(0,0)"/>
<path d="" fill="#F68F27" transform="translate(0,0)"/>
<path d="" fill="#F69325" transform="translate(0,0)"/>
<path d="" fill="#F6911F" transform="translate(0,0)"/>
<path d="" fill="#F08F28" transform="translate(0,0)"/>
<path d="" fill="#EC8E28" transform="translate(0,0)"/>
<path d="" fill="#EB8C25" transform="translate(0,0)"/>
<path d="" fill="#ED8D27" transform="translate(0,0)"/>
<path d="" fill="#ED8F2A" transform="translate(0,0)"/>
<path d="" fill="#EF8F26" transform="translate(0,0)"/>
<path d="" fill="#F58F22" transform="translate(0,0)"/>
<path d="" fill="#F48E21" transform="translate(0,0)"/>
<path d="" fill="#F99122" transform="translate(0,0)"/>
<path d="" fill="#EE8E29" transform="translate(0,0)"/>
<path d="" fill="#F68E20" transform="translate(0,0)"/>
<path d="" fill="#F58F24" transform="translate(0,0)"/>
<path d="" fill="#F68E21" transform="translate(0,0)"/>
<path d="" fill="#F58E22" transform="translate(0,0)"/>
<path d="" fill="#F49120" transform="translate(0,0)"/>
<path d="" fill="#ED8E28" transform="translate(0,0)"/>
<path d="" fill="#F49022" transform="translate(0,0)"/>
<path d="" fill="#F68C24" transform="translate(0,0)"/>
<path d="" fill="#F49020" transform="translate(0,0)"/>
<path d="" fill="#F68E22" transform="translate(0,0)"/>
<path d="" fill="#F09127" transform="translate(0,0)"/>
<path d="" fill="#F69022" transform="translate(0,0)"/>
<path d="" fill="#F48F23" transform="translate(0,0)"/>
<path d="" fill="#F89023" transform="translate(0,0)"/>
<path d="" fill="#EF8F26" transform="translate(0,0)"/>
<path d="" fill="#F69024" transform="translate(0,0)"/>
<path d="" fill="#F29122" transform="translate(0,0)"/>
<path d="" fill="#EE8F27" transform="translate(0,0)"/>
<path d="" fill="#F59222" transform="translate(0,0)"/>
<path d="" fill="#F68E23" transform="translate(0,0)"/>
<path d="" fill="#F69123" transform="translate(0,0)"/>
<path d="" fill="#F58F24" transform="translate(0,0)"/>
<path d="" fill="#F49022" transform="translate(0,0)"/>
<path d="" fill="#F58E1F" transform="translate(0,0)"/>
<path d="" fill="#F68E23" transform="translate(0,0)"/>
<path d="" fill="#F78E23" transform="translate(0,0)"/>
<path d="" fill="#F39023" transform="translate(0,0)"/>
<path d="" fill="#F78D22" transform="translate(0,0)"/>
<path d="" fill="#F18E21" transform="translate(0,0)"/>
<path d="" fill="#F48F24" transform="translate(0,0)"/>
<path d="" fill="#EC8F28" transform="translate(0,0)"/>
<path d="" fill="#EF8C26" transform="translate(0,0)"/>
<path d="" fill="#ED9125" transform="translate(0,0)"/>
<path d="" fill="#EE9127" transform="translate(0,0)"/>
<path d="" fill="#F08F27" transform="translate(0,0)"/>
<path d="" fill="#EC8E27" transform="translate(0,0)"/>
<path d="" fill="#EB8F27" transform="translate(0,0)"/>
<path d="" fill="#F08C26" transform="translate(0,0)"/>
<path d="" fill="#EC8E29" transform="translate(0,0)"/>
<path d="" fill="#EE8E25" transform="translate(0,0)"/>
<path d="" fill="#EB8D26" transform="translate(0,0)"/>
<path d="" fill="#EB8A25" transform="translate(0,0)"/>
<path d="" fill="#ED9028" transform="translate(0,0)"/>
<path d="" fill="#EE8D22" transform="translate(0,0)"/>
<path d="" fill="#584324" transform="translate(0,0)"/>
<path d="" fill="#F28E26" transform="translate(0,0)"/>
<path d="" fill="#F28B23" transform="translate(0,0)"/>
<path d="" fill="#EB9026" transform="translate(0,0)"/>
<path d="" fill="#EE8C27" transform="translate(0,0)"/>
<path d="" fill="#EC9128" transform="translate(0,0)"/>
<path d="" fill="#453A27" transform="translate(0,0)"/>
<path d="" fill="#EC8D27" transform="translate(0,0)"/>
<path d="" fill="#EF8E27" transform="translate(0,0)"/>
<path d="" fill="#EF9026" transform="translate(0,0)"/>
<path d="" fill="#EF9228" transform="translate(0,0)"/>
<path d="" fill="#F08F28" transform="translate(0,0)"/>
<path d="" fill="#4C3E27" transform="translate(0,0)"/>
<path d="" fill="#3E3627" transform="translate(0,0)"/>
<path d="" fill="#5A4526" transform="translate(0,0)"/>
<path d="" fill="#4B3F2E" transform="translate(0,0)"/>
<path d="" fill="#5D4525" transform="translate(0,0)"/>
</svg>
